<svg xmlns="http://www.w3.org/2000/svg" viewBox="0 0 155.71 188.09"><defs><style>.cls-1,.cls-2,.cls-4{fill:none;}.cls-1,.cls-2,.cls-3,.cls-4{stroke:#0a16ef;stroke-miterlimit:10;}.cls-1,.cls-3{stroke-width:0.37px;}.cls-2{stroke-width:1.11px;}.cls-3{fill:#0a16ef;}.cls-4{stroke-width:0.74px;}</style></defs><g id="Calque_2" data-name="Calque 2"><g id="Calque_1-2" data-name="Calque 1"><line class="cls-1" x1="77.73" y1="21.14" x2="77.73" y2="3.7"/><line class="cls-1" x1="77.73" y1="184.22" x2="77.73" y2="26.39"/><line class="cls-1" x1="87.88" y1="22.48" x2="90.93" y2="5.16"/><line class="cls-1" x1="81.74" y1="57.29" x2="86.9" y2="28.03"/><line class="cls-1" x1="59.8" y1="181.69" x2="73.71" y2="102.84"/><line class="cls-1" x1="97.14" y1="26.69" x2="103.5" y2="9.24"/><line class="cls-1" x1="83.65" y1="63.77" x2="94.75" y2="33.27"/><line class="cls-1" x1="62.5" y1="121.88" x2="71.51" y2="97.12"/><line class="cls-1" x1="43.35" y1="174.5" x2="59.8" y2="129.28"/><line class="cls-1" x1="105.14" y1="32.4" x2="114.83" y2="15.68"/><line class="cls-1" x1="87.1" y1="63.53" x2="99.57" y2="42"/><line class="cls-1" x1="80.34" y1="75.2" x2="83.56" y2="69.63"/><line class="cls-1" x1="71.21" y1="90.95" x2="74.5" y2="85.26"/><line class="cls-1" x1="57.84" y1="114.01" x2="67.76" y2="96.9"/><line class="cls-1" x1="29.37" y1="163.15" x2="34.73" y2="153.9"/><line class="cls-1" x1="111.68" y1="39.57" x2="124.81" y2="23.92"/><line class="cls-1" x1="89.9" y1="65.53" x2="101.15" y2="52.11"/><line class="cls-1" x1="81" y1="76.13" x2="84.44" y2="72.03"/><line class="cls-1" x1="70.67" y1="88.45" x2="73.96" y2="84.52"/><line class="cls-1" x1="56.31" y1="105.55" x2="65.38" y2="94.75"/><line class="cls-1" x1="23.16" y1="145.06" x2="47.68" y2="115.84"/><line class="cls-1" x1="18.99" y1="150.04" x2="20.06" y2="148.75"/><line class="cls-1" x1="116.59" y1="47.42" x2="133.18" y2="33.5"/><line class="cls-1" x1="90.52" y1="69.29" x2="101.07" y2="60.44"/><line class="cls-1" x1="81.68" y1="76.72" x2="86.47" y2="72.7"/><line class="cls-1" x1="65.12" y1="90.61" x2="73.56" y2="83.52"/><line class="cls-1" x1="56.46" y1="97.87" x2="65.12" y2="90.61"/><line class="cls-1" x1="11.31" y1="135.76" x2="47.68" y2="105.24"/><line class="cls-1" x1="116.06" y1="57.9" x2="139.94" y2="44.11"/><line class="cls-1" x1="82.52" y1="77.26" x2="99.97" y2="67.19"/><line class="cls-1" x1="57.22" y1="91.87" x2="72.6" y2="82.99"/><line class="cls-1" x1="6.35" y1="121.24" x2="47.68" y2="97.38"/><line class="cls-1" x1="110.66" y1="68.04" x2="145.28" y2="55.44"/><line class="cls-1" x1="83.8" y1="77.82" x2="97.58" y2="72.8"/><line class="cls-1" x1="59.8" y1="86.55" x2="70.96" y2="82.49"/><line class="cls-1" x1="3.67" y1="106.98" x2="47.61" y2="90.99"/><line class="cls-1" x1="104.41" y1="75.32" x2="149.14" y2="67.44"/><line class="cls-1" x1="2.93" y1="93.22" x2="47.68" y2="85.33"/><line class="cls-1" x1="140.22" y1="80.03" x2="151.52" y2="80.03"/><line class="cls-1" x1="3.83" y1="80.03" x2="18.79" y2="80.03"/><line class="cls-1" x1="120.05" y1="87.49" x2="152.45" y2="93.2"/><line class="cls-1" x1="106.44" y1="85.09" x2="120.05" y2="87.49"/><line class="cls-1" x1="6.22" y1="67.42" x2="47.61" y2="74.72"/><line class="cls-1" x1="115.37" y1="93.73" x2="151.7" y2="106.95"/><line class="cls-1" x1="84.77" y1="82.59" x2="95.07" y2="86.34"/><line class="cls-1" x1="57.23" y1="72.56" x2="71.08" y2="77.6"/><line class="cls-1" x1="10.08" y1="55.4" x2="47.5" y2="69.02"/><line class="cls-1" x1="110.59" y1="99" x2="149.06" y2="121.21"/><line class="cls-1" x1="83.1" y1="83.12" x2="97.66" y2="91.53"/><line class="cls-1" x1="55.1" y1="66.96" x2="72.6" y2="77.07"/><line class="cls-1" x1="15.39" y1="44.04" x2="47.08" y2="62.33"/><line class="cls-1" x1="108.77" y1="106.08" x2="144.09" y2="135.71"/><line class="cls-1" x1="82.02" y1="83.63" x2="99" y2="97.87"/><line class="cls-1" x1="68.99" y1="72.7" x2="73.5" y2="76.48"/><line class="cls-1" x1="53.98" y1="60.09" x2="65.46" y2="69.73"/><line class="cls-1" x1="36.5" y1="45.43" x2="45.82" y2="53.25"/><line class="cls-1" x1="22.2" y1="33.43" x2="25.52" y2="36.22"/><line class="cls-1" x1="135.48" y1="148.85" x2="136.42" y2="149.97"/><line class="cls-1" x1="108.5" y1="116.7" x2="132.85" y2="145.71"/><line class="cls-1" x1="89.78" y1="94.38" x2="99.21" y2="105.63"/><line class="cls-1" x1="81.58" y1="84.62" x2="85.14" y2="88.86"/><line class="cls-1" x1="70.76" y1="71.72" x2="74.19" y2="75.81"/><line class="cls-1" x1="53.98" y1="51.72" x2="65.92" y2="65.95"/><line class="cls-1" x1="36.81" y1="31.26" x2="43.57" y2="39.31"/><line class="cls-1" x1="30.77" y1="24.06" x2="32.47" y2="26.09"/><line class="cls-1" x1="120.13" y1="153.47" x2="125.8" y2="163.29"/><line class="cls-1" x1="87.36" y1="96.7" x2="97.58" y2="114.41"/><line class="cls-1" x1="80.65" y1="85.09" x2="84.01" y2="90.9"/><line class="cls-1" x1="71.53" y1="69.29" x2="74.82" y2="74.98"/><line class="cls-1" x1="55.62" y1="41.72" x2="68.54" y2="64.11"/><line class="cls-1" x1="40.49" y1="15.52" x2="51.15" y2="33.99"/><line class="cls-1" x1="95.71" y1="129.41" x2="112.02" y2="174.25"/><line class="cls-1" x1="83.95" y1="97.12" x2="92.88" y2="121.64"/><line class="cls-1" x1="60.67" y1="33.15" x2="71.94" y2="64.11"/><line class="cls-1" x1="51.89" y1="9.04" x2="58.55" y2="27.33"/><line class="cls-1" x1="81.69" y1="102.46" x2="95.65" y2="181.65"/><line class="cls-1" x1="68.56" y1="28.03" x2="73.75" y2="57.47"/><line class="cls-1" x1="64.53" y1="5.16" x2="67.62" y2="22.69"/><line class="cls-1" x1="79.8" y1="88.69" x2="81.42" y2="84.23"/><line class="cls-1" x1="3.73" y1="67.11" x2="3.53" y2="67.04"/><path class="cls-1" d="M118.72,86c1-1.75,1-4.26,1-5.61v0c0-1.34,0-3.86-1-5.62"/><line class="cls-1" x1="116.43" y1="80.44" x2="118.83" y2="80.44"/><line class="cls-1" x1="116.28" y1="77.53" x2="117.75" y2="77.53"/><line class="cls-1" x1="116.28" y1="83.21" x2="117.75" y2="83.21"/><path class="cls-2" d="M115.89,84.81a15.29,15.29,0,0,0,.48-4.38v0a15.34,15.34,0,0,0-.47-4.34"/><path class="cls-2" d="M47.94,84.68l-17.84,0-2.77,2.21s-5.06,1.29-5.11-6.44S27.33,74,27.33,74l2.76,2.2,17.82,0"/><path class="cls-2" d="M122,80.41c0,1.84,0,5.84-1.62,7.14a9.35,9.35,0,0,0-4.15-2.79H101.13"/><path class="cls-2" d="M122,80.44c0-1.83,0-5.84-1.62-7.14a9.14,9.14,0,0,1-4.3,2.82H103"/><path class="cls-1" d="M28.7,75.07c-1,1.68-1,4.09-1,5.39v0c0,1.3,0,3.72,1,5.41"/><path class="cls-2" d="M22.53,78.84a6.46,6.46,0,0,1-2.48-1c-1,.48-1,2-1,2.63v0c0,.68,0,2.16,1,2.64a6.29,6.29,0,0,1,2.57-1"/><path class="cls-1" d="M20.92,78.52a6.53,6.53,0,0,0-.21,1.93h0a6.5,6.5,0,0,0,.21,1.93"/><path class="cls-1" d="M25.49,74.08c-1.29,2-1.29,4.85-1.29,6.38v0c0,1.54,0,4.4,1.3,6.4"/><path class="cls-2" d="M121.65,85a9.52,9.52,0,0,1,2.47.21c1.26.3,3.7,1.34,4.91,1.67a11.53,11.53,0,0,0,4.43.18,6.85,6.85,0,0,1,2.67-.64c1.06,0,1.09-.91,1.23-1.45s.79-.67,1.32-1.15.28-.91.45-1.37,1.18-.64,1.26-1.5-.95-1.07-.65-1.47,1-.78.4-1.8-.89-.78-1.27-1.37-.56-1.77-1.34-2a4.51,4.51,0,0,0-2.16.21,12,12,0,0,1-1.52.19,2,2,0,0,0-1.2-1.69c-.9-.3-1.41.19-2,.16a2.24,2.24,0,0,0-2.05.7,32.43,32.43,0,0,0-2,2.63l-4.84.06"/><path class="cls-1" d="M137.18,80.8c-1-1.28-1.57-2.24-2.23-2.32a13.21,13.21,0,0,0-3.74.77c-.29.21-.74,1.84,0,2s2.39-.23,3.07-.08,2.19,2.23,2.19,2.23"/><path class="cls-1" d="M131,81.16a1.53,1.53,0,0,0-.59,1.92,2.63,2.63,0,0,0,3.11.36"/><path class="cls-1" d="M134.32,85.66c-.19-.06-1.45-1.32-1.46-2"/><path class="cls-1" d="M131,74.15c-.9,1.06-1.24,1.56-1.13,2.77s1.07,1.66,1.64,1.44.57-1.37,1.33-2.25a6.38,6.38,0,0,0,1-1.41"/><path class="cls-1" d="M138.28,78.64c-.89-.93-1.47-2.3-2-2.46a21.53,21.53,0,0,0-3.84.59"/><path class="cls-1" d="M131.38,78.41a.89.89,0,0,0,0,.76"/><path class="cls-1" d="M125.47,85.92c-.27-1.51-.18-4.34,1.81-4.87"/><path class="cls-1" d="M126.86,81.2c-.71-.61-.11-2.83,1.07-3.58"/><path class="cls-1" d="M131.13,83.59c-.2,0-.9,1.35-.66,1.88"/><path class="cls-1" d="M27.49,74.08c-1.28,2-1.28,4.85-1.28,6.38v0c0,1.54,0,4.4,1.29,6.4"/><path class="cls-2" d="M30.1,76.22a8.86,8.86,0,0,0-.77,4.23v0a8.88,8.88,0,0,0,.77,4.24"/><line class="cls-1" x1="47.94" y1="77.82" x2="38.66" y2="77.82"/><line class="cls-1" x1="47.94" y1="81.32" x2="37.66" y2="81.32"/><line class="cls-1" x1="47.94" y1="79.49" x2="40.66" y2="79.49"/><line class="cls-1" x1="47.94" y1="83" x2="42.16" y2="83"/><line class="cls-1" x1="99.73" y1="83" x2="110.51" y2="83"/><line class="cls-1" x1="98.94" y1="79.49" x2="111.51" y2="79.49"/><line class="cls-1" x1="98.25" y1="81.32" x2="108.51" y2="81.32"/><line class="cls-1" x1="101.23" y1="77.82" x2="107.01" y2="77.82"/><path class="cls-2" d="M37.08,29.4c-1.67-5.75-11.82-4.72-11.82,5.82C25.26,44,34,48.31,42.31,44c5.1,5.76,5.63,25.09,5.63,36.37v31.2c0,16.1-2.11,25.59-8,31.56S22.51,151,22.29,140.28"/><path class="cls-2" d="M29.27,135.86v.27A4.72,4.72,0,0,1,20.2,138"/><path class="cls-2" d="M37.07,29.36a3,3,0,0,1,.12,1,3.73,3.73,0,0,1-3.79,3.72,3.79,3.79,0,0,1-3.79-3.79c0-.1,0-.2,0-.3"/><circle class="cls-3" cx="77.84" cy="80.08" r="2.09"/><path class="cls-2" d="M30.76,33c-3.28,2-.87,8,5.32,8.1s13.81-5.76,13.81-5.76C51.34,34.22,54,31.86,57,29s10.55-7.55,20.79-7.55C106,21.41,117.64,49,117.64,49,117.64,69.21,97,80.35,97,80.35s2.24.8,4.62,4.72c3,5,8.51,6,12.56,6a5.82,5.82,0,0,0,1.48,2.7s-7,1.52-7,17.62,1.12,25.79,7,31.76,19.38,8,19.38-4.44"/><path class="cls-2" d="M57.71,127.88c0,5.13-8.22,25.93-24.46,25.93s-20.58-14.66-16.49-20.54,12.4-3.89,12.51,2.73"/><path class="cls-2" d="M97.91,127.88c0,5.13,8.22,25.93,24.46,25.93s20.58-14.66,16.49-20.54-12.51-3.86-12.51,2.86"/><path class="cls-2" d="M126.35,135.86c0,.09,0,.18,0,.27a4.73,4.73,0,0,0,4.73,4.73A5.34,5.34,0,0,0,136,137"/><path class="cls-1" d="M21.82,137.26c1.29,2.31,6.6,2.53,5.42-2.85"/><path class="cls-1" d="M128.25,135.17c-.64,2.56,3.08,6.36,5.9,1.63"/><path class="cls-1" d="M31.2,31.24c1,1.82,5.2,2,4.26-2.24"/><path class="cls-1" d="M55.37,129.07c-2.6,8.58-10.2,23.55-24.63,22.36"/><path class="cls-1" d="M100.32,129.07c2.6,8.58,10.2,23.55,24.63,22.36"/><path class="cls-1" d="M115.66,49.85c.55,4.9-5.28,19.76-16,25.91"/><path class="cls-1" d="M114.68,92.37c-4,1.66-7.58,7.11-7.79,17"/><path class="cls-1" d="M49.29,120.31c.91-7.93.5-32.11.5-32.11"/><path class="cls-1" d="M114.12,91.76c-2.05.39-4.11,3-4.11,3"/><path class="cls-1" d="M77.81,51.68c-.56.49-1.66,4.68-1.66,4.68"/><path class="cls-2" d="M74.94,66.59a5,5,0,0,0-1.84-2c-3.47-2.08-7.86-.58-7.93,3.76s4.82,5,6.11,3.09c0,0-.89-2.13,1.45-2.13s3.65,3.3,2.21,5.94-6,3.42-9.12,3C51.66,76.56,52.92,51,56.09,40.84s12.2-14.73,21.72-14.73"/><path class="cls-2" d="M80.44,66.59c.41-1.33,1-2.11,1.71-4.05,1-2.72-1.15-7.29-4.34-11.17-3.2,3.88-5.35,8.45-4.37,11.17.7,1.94,1.3,2.72,1.71,4.05"/><path class="cls-1" d="M79.43,56.36s-1.07-4.19-1.62-4.68"/><path class="cls-2" d="M80.64,66.59a5,5,0,0,1,1.84-2c3.47-2.08,7.86-.58,7.93,3.76s-4.82,5-6.11,3.09c0,0,.89-2.13-1.45-2.13s-3.65,3.3-2.21,5.94,6,3.42,9.12,3c14.16-1.71,12.9-27.32,9.73-37.43S87.3,26.11,77.78,26.11"/><path class="cls-1" d="M63.41,80C56.76,79.18,52,70.47,51.9,52.23"/><path class="cls-1" d="M84.38,71.82c1.13.36,3.33-.92,2.85-2.53"/><path class="cls-1" d="M84.31,71.53c1.09.14,1.34-1.23,1.34-1.23"/><path class="cls-1" d="M103.14,47.79c-.73-7.55-3.09-15.91-10.94-20.18"/><path class="cls-1" d="M58,33.15c3-5.07,9.46-8.25,14.88-8.73"/><path class="cls-1" d="M70,121.73c-.78,1.89-4.07,5.36-7.82,4.22"/><path class="cls-2" d="M66.69,82.44C53.54,84.15,54,111.51,60.34,119.87,64,124.6,70,121.46,70,121.46c0,4-1.46,8.69-7.12,8.69s-6.15-4.63-6.15-4.63"/><path class="cls-2" d="M88.93,82.44c13.16,1.71,12.75,29.07,6.35,37.43-3.6,4.73-9.65,1.59-9.65,1.59,0,4,1.47,8.69,7.13,8.69s6.14-4.63,6.14-4.63"/><path class="cls-1" d="M69.46,121.88C69,123,66.2,124.16,64.51,124"/><path class="cls-1" d="M69.63,122.75c-.06,1.08-1,3.23-3.85,4.48"/><path class="cls-1" d="M85.7,121.73c.78,1.89,4.07,5.36,7.82,4.22"/><path class="cls-1" d="M86.22,121.88c.49,1.11,3.26,2.28,5,2.08"/><path class="cls-1" d="M86.05,122.75c.07,1.08,1,3.23,3.86,4.48"/><path class="cls-1" d="M77.78,109.09c.55-.5,1.65-4.69,1.65-4.69"/><path class="cls-2" d="M80.64,94.18a5,5,0,0,0,1.84,2c3.47,2.08,7.86.59,7.93-3.76s-4.82-5-6.11-3.09c0,0,.89,2.13-1.45,2.13s-3.65-3.29-2.21-5.93S85.8,82.07,89,82.45"/><path class="cls-2" d="M75.14,94.18c-.41,1.32-1,2.11-1.71,4-1,2.72,1.15,7.29,4.35,11.17,3.19-3.88,5.34-8.45,4.36-11.17-.7-1.93-1.3-2.72-1.71-4"/><path class="cls-1" d="M76.15,104.4s1.07,4.19,1.63,4.69"/><path class="cls-2" d="M74.94,94.18a5,5,0,0,1-1.84,2c-3.47,2.08-7.86.59-7.93-3.76s4.82-5,6.11-3.09c0,0-.89,2.13,1.45,2.13s3.65-3.29,2.21-5.93-5.09-3.48-8.25-3.1"/><path class="cls-1" d="M71.21,71.82c-1.13.36-3.33-.92-2.85-2.53"/><path class="cls-1" d="M71.28,71.53c-1.09.14-1.34-1.23-1.34-1.23"/><path class="cls-1" d="M84.38,89.38c1.13-.36,3.33.91,2.85,2.52"/><path class="cls-1" d="M84.31,89.66c1.09-.13,1.34,1.24,1.34,1.24"/><path class="cls-1" d="M71.21,89.38c-1.13-.36-3.33.91-2.85,2.52"/><path class="cls-1" d="M71.28,89.66c-1.09-.13-1.34,1.24-1.34,1.24"/><path class="cls-4" d="M77.86,184.46C36.57,184.46,3.1,144,3.1,94S36.57,3.63,77.86,3.63,152.62,44.11,152.62,94s-33.47,90.42-74.76,90.42"/><ellipse class="cls-2" cx="77.86" cy="94.04" rx="77.3" ry="93.49"/></g></g></svg>